<svg width="64" height="64" viewBox="0 0 64 64" fill="none" xmlns="http://www.w3.org/2000/svg">
  <rect x="4" y="4" width="56" height="56" rx="16" fill="#171717"/>
  <path d="M22 16C22 14.8954 22.8954 14 24 14H34.5L42 21.5V46C42 47.1046 41.1046 48 40 48H24C22.8954 48 22 47.1046 22 46V16Z" fill="#FAFAF9"/>
  <path d="M34 14V20C34 21.1046 34.8954 22 36 22H42" fill="#D6D3D1"/>
  <path d="M28 29H36" stroke="#171717" stroke-width="2.6" stroke-linecap="round"/>
  <path d="M28 35H36" stroke="#171717" stroke-width="2.6" stroke-linecap="round"/>
  <path d="M28 41H33" stroke="#171717" stroke-width="2.6" stroke-linecap="round"/>
  <circle cx="44" cy="44" r="8" fill="#0F766E"/>
  <path d="M40.8 44H47.2" stroke="#F5F5F4" stroke-width="2.2" stroke-linecap="round"/>
  <path d="M44 40.8V47.2" stroke="#F5F5F4" stroke-width="2.2" stroke-linecap="round"/>
</svg>
